<?xml version="1.0" encoding="UTF-8"?>
<svg width="120px" height="36px" viewBox="0 0 120 36" version="1.1" xmlns="http://www.w3.org/2000/svg" xmlns:xlink="http://www.w3.org/1999/xlink">
    <title>6AD7331F-89BD-4854-B633-CAE61AE71FC3</title>
    <defs>
        <polygon id="path-1" points="0 35.3944289 120 35.3944289 120 0 0 0"></polygon>
    </defs>
    <g id="Sidor" stroke="none" stroke-width="1" fill="none" fill-rule="evenodd">
        <g id="Stylesheet-Tentipi" transform="translate(-70.000000, -632.000000)">
            <g id="Logo-Desktop" transform="translate(70.000000, 632.000000)">
                <path d="M82.8884978,27.181181 C79.3125727,24.3412592 77.1179507,20.5387428 77.1179507,16.3452979 C77.1179507,7.56212434 86.7934321,0.000267759273 98.6347512,0.000267759273 C110.47674,0.000267759273 119.999933,7.56212434 119.999933,16.3452979 C119.999933,20.4657784 117.887312,24.2197634 114.426858,27.0452932 C115.702062,28.4112001 117.045879,29.7941768 118.486758,31.2240113 C118.815433,31.4506026 118.933916,32.1290377 118.809408,32.5136069 C118.673186,32.9356625 118.443917,33.1927114 118.083781,33.2077728 C117.569014,33.2288589 101.137631,33.2378957 100.771805,33.2154709 C100.406314,33.1927114 100.133199,32.7328348 100.133199,32.7328348 L86.5989719,32.748231 C86.5989719,32.748231 86.1213563,33.2067687 85.4824157,33.2067687 L79.0498339,33.2067687 C78.9490895,33.2067687 78.6210844,33.130792 78.4363305,32.5882448 C78.3001079,32.1892835 78.4694657,31.826135 78.7399025,31.548 C80.2199419,30.023111 81.5952205,28.5785497 82.8884978,27.181181" id="Fill-1" fill="#000000"></path>
                <path d="M87.2131113,31.7748256 C89.694905,28.1768104 91.9959613,24.2146425 93.9800575,20.0094831 L99.7800581,31.7674622 L87.2131113,31.7748256 Z M83.8681286,26.1147293 C81.1650987,23.4532021 79.5331059,20.0513205 79.5331059,16.3438587 C79.5331059,7.81873813 88.1050844,0.907871286 98.6795675,0.907871286 C109.254051,0.907871286 117.82536,7.81873813 117.82536,16.3438587 C117.82536,20.0660473 116.275703,23.4565491 113.569326,26.1190804 C108.505329,20.5945372 104.459821,15.2463804 99.5002496,8.0885056 C99.5002496,8.0885056 100.747004,5.54311901 101.602829,3.51450781 C101.710937,3.25745891 101.573376,2.9656013 101.333062,2.87724074 C101.122536,2.79925585 100.77947,3.02015725 100.650276,3.25779361 C99.6267659,5.14348829 98.6628325,6.63691564 98.6628325,6.63691564 C98.6628325,6.63691564 97.487704,4.63005988 96.6937977,3.23101768 C96.5729714,3.01714496 96.2687299,2.76411245 95.9832316,2.89564919 C95.7499463,3.0034223 95.6558959,3.29159822 95.7760528,3.55935749 C96.6348907,5.4711587 97.7946231,8.08515861 97.7946231,8.08515861 C93.2929203,14.9853151 89.2848987,20.1738204 83.8681286,26.1147293 L83.8681286,26.1147293 Z" id="Fill-3" fill="#FFD334"></path>
                <path d="M18.7459271,26.9831061 C18.4487143,27.381398 18.2957569,27.4955304 17.9453269,27.7980984 C17.594897,28.0999969 17.1701638,28.3423191 16.6701234,28.5243954 C16.1700829,28.7064717 15.6559851,28.7978445 15.1274953,28.7978445 C14.0323598,28.7978445 13.112272,28.4139447 12.3672318,27.6454756 C11.6406001,26.8967537 11.2931825,25.9425266 11.2516798,25.2306216 L21.631368,25.2306216 C21.6156371,23.0530693 21.1574341,21.635284 20.2564241,20.49965 C18.9889187,18.8907514 17.2933331,18.0871389 15.1703367,18.0871389 C13.108925,18.0871389 11.4625402,18.8720083 10.2331904,20.4414123 C9.26323247,21.6767867 8.77825348,23.0821882 8.77825348,24.6599597 C8.77825348,26.3361327 9.35058893,27.839601 10.4955945,29.1686911 C11.6406001,30.49912 13.2284126,31.1634977 15.2586973,31.1634977 C16.1747687,31.1634977 16.9954509,31.0242629 17.7204091,30.7474667 C18.4453673,30.4700012 19.0983653,30.0650153 19.6783988,29.5331784 C20.2584323,29.0006722 20.5810822,28.6555974 20.9469084,28.0648535 L18.7459271,26.9831061 Z M16.9549523,20.8142671 C17.5152386,21.0739936 17.9664129,21.4153867 18.3071366,21.838781 C18.6153945,22.2213421 18.8051689,22.7257336 18.9775389,23.2030145 L11.4448011,23.2030145 C11.7149033,22.49613 12.0609822,21.8434668 12.5586797,21.4019987 C13.2910013,20.7513437 14.1675783,20.4246774 15.1870717,20.4246774 C15.8049262,20.4246774 16.3943313,20.5558794 16.9549523,20.8142671 L16.9549523,20.8142671 Z" id="Fill-5" fill="#000000"></path>
                <path d="M68.1506257,13.2890601 C68.6479886,13.2890601 69.0743952,13.457079 69.4281722,13.7934516 C69.7816144,14.1298242 69.9576661,14.5351448 69.9576661,15.0104175 C69.9576661,15.4766533 69.7816144,15.8772882 69.4281722,16.2129913 C69.0743952,16.5493639 68.6479886,16.7180523 68.1506257,16.7180523 C67.6612957,16.7180523 67.2405789,16.5493639 66.8878061,16.2129913 C66.5346985,15.8772882 66.3583121,15.4766533 66.3583121,15.0104175 C66.3583121,14.5351448 66.5346985,14.1298242 66.8878061,13.7934516 C67.2405789,13.457079 67.6612957,13.2890601 68.1506257,13.2890601" id="Fill-7" fill="#000000"></path>
                <mask id="mask-2" fill="white">
                    <use xlink:href="#path-1"></use>
                </mask>
                <g id="Clip-10"></g>
                <polygon id="Fill-9" fill="#000000" mask="url(#mask-2)" points="66.8728785 30.8314762 69.3901504 30.8314762 69.3901504 18.3860252 66.8728785 18.3860252"></polygon>
                <polygon id="Fill-11" fill="#000000" mask="url(#mask-2)" points="38.5345089 13.8009154 41.0527848 13.8009154 41.0527848 18.3856236 43.1516828 18.3856236 43.1516828 20.5397469 41.0527848 20.5397469 41.0527848 30.8314093 38.5345089 30.8314093 38.5345089 20.5397469 36.7047089 20.5397469 36.7047089 18.3856236 38.5345089 18.3856236"></polygon>
                <path d="M47.0420243,13.2890601 C47.5403912,13.2890601 47.9657938,13.457079 48.3189013,13.7934516 C48.6730129,14.1298242 48.8493994,14.5351448 48.8493994,15.0104175 C48.8493994,15.4766533 48.6730129,15.8772882 48.3189013,16.2129913 C47.9657938,16.5493639 47.5403912,16.7180523 47.0420243,16.7180523 C46.5533636,16.7180523 46.1333162,16.5493639 45.7792046,16.2129913 C45.4257623,15.8772882 45.2497106,15.4766533 45.2497106,15.0104175 C45.2497106,14.5351448 45.4257623,14.1298242 45.7792046,13.7934516 C46.1333162,13.457079 46.5533636,13.2890601 47.0420243,13.2890601" id="Fill-12" fill="#000000" mask="url(#mask-2)"></path>
                <polygon id="Fill-13" fill="#000000" mask="url(#mask-2)" points="45.7644109 30.8314762 48.2816828 30.8314762 48.2816828 18.3860252 45.7644109 18.3860252"></polygon>
                <path d="M62.5369187,19.9825399 C61.2777807,18.7093445 59.763602,18.0734162 57.9947173,18.0734162 C56.979575,18.0734162 56.0604913,18.3666126 55.2364621,18.7990439 C54.4127677,19.2314751 53.965275,19.8858118 53.965275,19.8858118 L53.965275,18.3866946 L51.4523542,18.3866946 L51.4523542,35.3944289 L53.965275,35.3944289 L53.965275,29.391266 C53.965275,29.391266 54.5034711,30.03757 55.3047407,30.4760258 C56.1193983,30.921845 57.0481883,31.1501098 58.0402364,31.1501098 C59.8017577,31.1501098 61.3068995,30.5118386 62.5536537,29.2356309 C63.8004078,27.9587539 64.3473061,26.4060848 64.3473061,24.577289 C64.3473061,22.7866489 63.7950526,21.2547311 62.5369187,19.9825399 M59.7843534,28.1565611 C59.1765398,28.5180361 58.5285624,28.6987736 57.8377435,28.6987736 C57.1358795,28.6987736 56.4691589,28.5193749 55.837247,28.1612469 C55.2053351,27.8027841 54.7196867,27.3181399 54.3809712,26.7066446 C54.0419211,26.0954841 53.872898,25.4066733 53.872898,24.6405471 C53.872898,23.4731167 54.2524468,22.4971341 55.0128831,21.7122648 C55.7726501,20.9283995 56.7088034,20.5357975 57.8200044,20.5357975 C58.5342523,20.5357975 59.1936095,20.7135227 59.7984107,21.0689731 C60.4028773,21.4237542 60.8838399,21.9224558 61.2402944,22.5650781 C61.5977531,23.2073656 61.7764824,23.8868048 61.7764824,24.6033955 C61.7764824,25.3139617 61.5960796,25.9930662 61.2356086,26.6413783 C60.8758071,27.2906945 60.3921669,27.7954208 59.7843534,28.1565611" id="Fill-14" fill="#000000" mask="url(#mask-2)"></path>
                <path d="M23.8418881,18.3874979 L26.365854,18.3874979 L26.3638458,19.8859457 C27.1042002,19.2376336 27.5624033,18.7787611 28.5320265,18.4182902 C29.1438565,18.1910295 29.7566905,18.0511253 30.3902759,18.0511253 C31.6892431,18.0511253 32.9831897,18.6083993 33.7995208,19.5960963 C34.5566102,20.5128371 34.840435,21.6290586 34.840435,22.8292895 L34.840435,30.8346224 L32.3124528,30.8362959 L32.3124528,25.8767247 C32.3124528,24.0459207 32.2301168,22.830963 32.0667836,22.2301781 C31.9024464,21.6300627 31.6166133,21.1718596 31.2089499,20.8575772 C30.8009517,20.5432947 30.2975642,20.3866555 29.6974488,20.3866555 C28.9192734,20.3866555 28.2515487,20.646382 27.6942747,21.1675085 C27.1363313,21.6883003 26.7500886,22.4089075 26.5342076,23.3279912 C26.4217487,23.8066109 26.365854,24.8445127 26.365854,26.4393539 L26.365854,30.8510226 L23.8418881,30.8510226 L23.8418881,18.3874979 Z" id="Fill-15" fill="#000000" mask="url(#mask-2)"></path>
                <polygon id="Fill-16" fill="#000000" mask="url(#mask-2)" points="9.28789979 14.016629 0 14.016629 0 16.3518245 3.38246902 16.3518245 3.38246902 30.8335848 5.90543077 30.8335848 5.90543077 16.3518245 9.28789979 16.3518245"></polygon>
            </g>
        </g>
    </g>
</svg>